<?xml version="1.0" encoding="utf-8"?>
<svg version="1.1" id="Layer_1" xmlns="http://www.w3.org/2000/svg" xmlns:xlink="http://www.w3.org/1999/xlink" x="0px" y="0px"
	 viewBox="190 190 190 190" style="enable-background:new 0 0 612 792;" xml:space="preserve">
<style type="text/css">
	.st0{fill:#EC4980;}
	.st1{fill:#1A869B;}
	.st2{fill:#CB255A;}
	.st3{fill:#09637F;}
	.st4{fill:#F4F1F4;}
	.st5{fill:#0F6283;}
	.st6{fill:#34858F;}
	.st7{fill:#D0E7EE;}
	.st8{fill:#F6D5E4;}
	.st9{fill:#226877;}
	.st10{fill:#2A8898;}
	.st11{fill:#21667C;}
	.st12{fill:#11677C;}
	.st13{fill:#367F8B;}
	.st14{fill:#2B8A96;}
	.st15{fill:#296878;}
	.st16{fill:#1D6377;}
	.st17{fill:#BF476A;}
	.st18{fill:#1785A3;}
	.st19{fill:#118A94;}
	.st20{fill:#C16483;}
	.st21{fill:#18839E;}
	.st22{fill:#108996;}
	.st23{fill:#1983A7;}
	.st24{fill:#1884A5;}
	.st25{fill:#1884A3;}
	.st26{fill:#198793;}
	.st27{fill:#125D83;}
	.st28{fill:#FEFEFF;}
	.st29{fill:#1B8897;}
</style>
<path class="st0" d="M227.08,295.07c-3.06-2-6.4-3.68-9.13-6.06c-9.18-8.01-14.63-18.13-16.57-30.23
	c-3.27-20.38,6.39-40.24,23.56-49.49c6.88-3.71,14.24-6.04,22.07-6.71c1.12,0.02,2.25,0.04,3.37,0.07c1.04,0.03,2.09,0.08,3.13,0.08
	c29.22,0,58.44-0.02,87.67,0.01c1.15,0,2.31,0.44,3.46,0.68c-2.94,2.65-5.88,5.29-8.82,7.94c0.22,0.33,0.44,0.66,0.66,0.98
	c3.97-2.47,7.94-4.93,11.91-7.4c8.81-5.16,17.63-10.33,26.44-15.49c0.23,0.29,0.45,0.58,0.68,0.87c-1.55,1.69-3.02,3.46-4.65,5.07
	c-14.03,13.86-28.07,27.71-42.19,41.47c-0.89,0.87-2.47,1.48-3.73,1.48c-19.66,0.03-39.32-0.11-58.98-0.08
	c-3.86,0.01-7.73,0.54-11.59,0.83c-0.43-0.14-0.88-0.44-1.29-0.4c-7.03,0.82-14.05,1.75-20.51,4.91
	c-6.93,3.39-12.65,8.16-15.54,15.47c-3.72,9.4-1.42,18.2,3.64,26.47C222.67,288.81,224.93,291.9,227.08,295.07z"/>
<path class="st1" d="M357.69,296.15c3.07,5.51,4.73,11.33,5.2,17.7c0.42,5.6,0.7,11.06-0.62,16.55
	c-4.28,17.83-15.38,29.36-32.68,34.9c-4.55,1.45-9.42,1.88-14.14,2.78c-6.84,0.03-13.67,0.06-20.51,0.09
	c-18.04,0.08-36.08,0.17-54.12,0.25c2.02-0.14,4.05-0.19,6.05-0.47c0.85-0.12,1.63-0.71,2.45-1.09c21.97,0,43.94,0.01,65.9-0.06
	c1.02,0,2.04-0.7,3.06-1.08c1.3-0.35,2.61-0.7,3.91-1.05c-0.77-2.26-2.66-0.99-4.02-1.18c-1.16-0.16-2.85-0.58-2.73,1.65
	c-0.57,0.01-1.13,0.02-1.7,0.02c-0.19-0.57-0.39-1.15-0.58-1.72c-0.73-0.38-1.46-1.09-2.2-1.09c-19.81-0.06-39.62-0.06-59.43,0
	c-0.74,0-1.47,0.71-2.21,1.08c0.92,0.38,1.84,1.09,2.76,1.1c13.35,0.07,26.71,0.03,40.06,0.1c0.93,0,1.86,0.7,2.79,1.07
	c-14.19,0.01-28.38-0.01-42.56,0.07c-1.02,0.01-2.03,0.71-3.04,1.09c-6.27,0-12.53-0.01-18.8,0.01c-0.84,0-1.67,0.22-2.51,0.27
	c-0.97,0.05-1.96,0.12-2.92,0.01c-1.32-0.15-2.92-1.17-3.1,1.3c-1.2,0-2.4,0-3.03,0c1.16-1.4,2.4-2.9,3.64-4.4
	c0.28-0.25,0.56-0.5,0.85-0.76c1.18-0.92,2.37-1.84,3.55-2.76c1.29,0.17,2.58,0.33,4.25,0.55c-0.31-1.42-0.52-2.38-0.74-3.34
	c0,0,0.03-0.03,0.03-0.03c0.24-1.12,0.47-2.25,0.71-3.38c-3.32-0.41-6.29-0.79-9.27-1.16l-0.01-0.01c0.44-0.39,0.82-1.02,1.33-1.14
	c3.62-0.89,5.85-3.03,6.71-6.72c0.2-0.86,1.05-1.91,1.86-2.23c3.87-1.55,6.48-4.18,7.76-8.14c21.21,0,42.43,0.02,63.64-0.05
	c1.02,0,2.03-0.71,3.05-1.09c2.13,0.33,4.25,0.66,6.61,1.03c-1.08-1.13-1.86-1.96-2.65-2.78c0.95-0.2,1.91-0.39,2.86-0.59
	c7.28-0.67,14.3-2.23,20.8-5.77c5.93-3.24,10.88-7.69,13.13-13.98c4.49-12.57,0.54-23.38-8.26-32.84c-0.43-0.46-0.05-1.69-0.05-2.55
	c4.55,2.2,8.45,5.17,11.41,9.34c0.99,1.4,2.27,2.6,3.41,3.89c-0.17,0.31-0.35,0.61-0.52,0.92c-0.76,0-1.52,0-2.28,0
	c-0.08-0.04-0.16-0.08-0.24-0.13c0.08,0.05,0.15,0.09,0.23,0.14c-0.97,3.75,3.22,4.87,3.99,7.75c0.03,0.11,0.83,0,1.28,0
	c-0.05-0.51-0.09-1.01-0.14-1.52C356.5,296.53,357.09,296.34,357.69,296.15z"/>
<path class="st2" d="M227.08,295.07c-2.14-3.17-4.41-6.25-6.4-9.51c-5.06-8.27-7.35-17.07-3.64-26.47
	c2.89-7.32,8.61-12.08,15.54-15.47c6.47-3.17,13.48-4.1,20.51-4.91c0.41-0.05,0.86,0.26,1.29,0.4c-5.38,1.99-9.45,5.43-10.7,11.19
	c-2.04,9.38,2.99,16.88,13.72,17.28c12.11,0.45,24.25,0.08,36.37,0.07c-0.28,0.62-0.43,1.39-0.87,1.85
	c-3.71,3.84-7.51,7.6-11.23,11.44c-6.04,6.21-12.05,12.46-18.07,18.69c-5.67,5.53-11.33,11.06-17,16.6
	c-0.84,0.44-1.69,0.88-2.7,1.42c-0.08-0.6-0.16-1.19-0.24-1.79c4.56-7.29,9.11-14.58,13.67-21.87c2.53-3.85,5.06-7.69,7.59-11.54
	c-0.23-0.16-0.45-0.33-0.68-0.49c-2.66,2.87-5.33,5.73-7.99,8.6c0,0-0.03,0.04-0.03,0.04c-0.71,0.75-1.43,1.5-2.14,2.25
	c-2.5,2.58-4.95,5.2-7.52,7.71c-0.58,0.57-1.73,1.2-2.34,0.99c-5.58-1.94-11.1-4.06-16.63-6.12
	C227.42,295.28,227.25,295.17,227.08,295.07L227.08,295.07z"/>
<path class="st3" d="M338.76,276.33c0,0.87-0.39,2.09,0.05,2.55c8.8,9.46,12.75,20.27,8.26,32.84c-2.25,6.29-7.2,10.75-13.13,13.98
	c-6.5,3.54-13.52,5.1-20.8,5.77c0.18-0.32,0.31-0.88,0.54-0.92c5.51-0.87,6.52-5.68,8.32-9.68c0.33-0.74-0.51-2-0.81-3.02
	c0.01-0.38,0.01-0.76,0.02-1.14c1.69-1.55,1.77-3.07-0.06-4.58c-0.02-0.91,0.35-2.19-0.11-2.68c-2.26-2.42-4.12-5.5-7.91-5.88
	c-0.24-0.51-0.47-1.02-0.71-1.53c-0.33,0.52-0.66,1.04-0.98,1.56l-0.28,0.02c0,0-0.27-0.1-0.27-0.1c-0.28-0.12-0.56-0.23-0.84-0.35
	l-0.18,0.01c0,0-0.15-0.11-0.15-0.11c-0.92-0.38-1.84-1.09-2.77-1.09c-10.42-0.08-20.84-0.05-31.26-0.03c-1.59,0-3.04,0-2.08-2.28
	c2.32-0.57,2.96-3.99,5.91-3.48c1.06,0.07,2.69,0.6,3.08,0.12c1.54-1.9,2.68-4.11,3.97-6.2c1.65-2.06,5.07-1.76,6.34-5.15
	c0.44-1.18,2.8-1.65,4.28-2.45c0.38,0,0.76,0,1.14,0.01c-0.39,1.13-1.77,2.27-0.01,3.41c-0.19,1.59-0.38,3.18-0.58,4.76
	c0.28,0.04,0.56,0.08,0.85,0.12c0.44-0.8,0.87-1.6,1.3-2.39c2.94,0.22,3.16,0.07,2.88-1.95c0.35-0.58,0.7-1.16,1.06-1.74
	c1.92,0.24,3.51,0.2,3.87-2.39c0.13-0.95,1.27-2.46,2.03-2.51c3.78-0.24,4.68-3.94,6.34-5.94c2.33-2.81,4.26-4.42,7.81-3.9
	C328.85,272.1,333.81,274.21,338.76,276.33z"/>
<path class="st4" d="M263.59,299.6c6.02-6.23,12.03-12.48,18.07-18.69c3.73-3.83,7.52-7.59,11.23-11.44
	c0.45-0.46,0.59-1.23,0.87-1.85c0.37-0.07,0.74-0.14,1.11-0.21c-0.96,3.79,2.12,4.03,4.37,5c-0.83,0.9-1.65,1.83-2.51,2.71
	c-7.81,8.01-15.62,16-23.43,24c-1.1,1.27-2.2,2.54-3.31,3.81c-1.59-0.86-3.18-1.74-4.78-2.58
	C264.71,300.07,264.14,299.85,263.59,299.6z"/>
<path class="st5" d="M297.2,282.5c-1.48,0.79-3.84,1.26-4.28,2.45c-1.27,3.4-4.69,3.09-6.34,5.15c-1.29,2.09-2.44,4.31-3.97,6.2
	c-0.39,0.48-2.02-0.05-3.08-0.12c1.73-2.46,3.45-4.93,5.18-7.39c0.36-0.2,0.73-0.4,1.09-0.6c2.35-1.8,4.7-3.6,7.23-5.53
	c-1.57-2.7,1.89-3.03,2.93-4.58c1.24-1.86,3.81-2.84,5.01-4.7c1.12-1.74,4.07-2.61,3.11-5.52c0.23-0.23,0.47-0.47,0.7-0.7
	c1.27-0.21,2.55-0.41,3.83-0.62c0.62-0.89,1.24-1.78,1.98-2.84c0.71,0.28,1.52,0.6,2.51,0.99c-2.54,2.57-3.06,6.86-7.9,6.62
	c0.93,1.54,1.62,2.7,2.32,3.86c-0.09,0.17-0.17,0.33-0.26,0.5c-1.42-0.26-2.83-0.52-3.78-0.7c-2.33,2.07-4.57,4.07-6.9,6.15
	C296.67,281.35,296.94,281.93,297.2,282.5z"/>
<path class="st6" d="M310.28,332.06c0.78,0.82,1.57,1.64,2.65,2.78c-2.36-0.37-4.48-0.7-6.61-1.03c-0.76-0.01-1.52-0.02-2.27-0.03
	c-1.03-0.37-2.06-1.06-3.09-1.06c-19.46-0.06-38.91-0.06-58.37-0.02c-0.98,0-1.97,0.36-2.95,0.55c-0.19-0.01-0.38,0-0.57,0.01
	c-1.85,0.88-3.59,1.74-3.54,4.32c0.01,0.63-1.09,1.43-1.85,1.87c-0.59,0.34-1.96,0.04-2.09,0.38c-1.13,2.88-5.33,3.48-5.31,7.23
	c0,0.45-1.05,0.95-1.66,1.35c-1.54,1-3.81,1.6-4.5,3c-0.99,2.02-2.3,1.78-3.83,1.81c0-0.15,0-0.29,0.01-0.44
	c6.57-6.54,13.11-13.12,19.78-19.57c0.8-0.77,2.35-1.07,3.55-1.07c19.91-0.06,39.81-0.02,59.72-0.06c3.29-0.01,6.58-0.29,9.88-0.44
	C309.59,331.75,309.94,331.9,310.28,332.06z"/>
<path class="st7" d="M222.59,364.05c-1.24,1.5-2.48,3-3.64,4.4c0.63,0,1.83,0,3.03,0c6.28-0.01,12.56-0.01,18.84-0.02
	c18.04-0.08,36.08-0.17,54.12-0.25c6.84-0.03,13.67-0.06,20.51-0.09c1.15,0.55,2.3,1.1,4.07,1.94c-2.29,0-4.11,0.11-5.91-0.04
	c-1.25-0.1-2.47-0.83-3.71-0.84c-29-0.05-58-0.04-87,0.01c-1.28,0-2.56,0.52-4.39,0.91c-1.82-1.13-1.51-2.71,0.58-4.41
	c0.29-0.23,0.02-1.14,0.01-1.74c0.34-0.18,0.67-0.36,1.01-0.54c0.77,0.17,1.54,0.34,2.31,0.51L222.59,364.05z"/>
<path class="st8" d="M348.4,204.94c-3.97,2.47-7.94,4.93-11.91,7.4c-0.22-0.33-0.44-0.66-0.66-0.98c2.94-2.65,5.88-5.29,8.82-7.94
	c0.28-0.31,0.56-0.62,1.2-1.35c-1.06,0-1.59,0-2.13,0c-30.19,0.05-60.38,0.1-90.57,0.17c-0.92,0-1.84,0.27-2.76,0.41
	c-1.12-0.02-2.25-0.04-3.37-0.07c0.69-0.33,1.38-0.94,2.07-0.94c32.26-0.05,64.52-0.04,96.78-0.03c0.09,0,0.18,0.06-0.04,0.4
	C346.68,202.98,347.54,203.96,348.4,204.94z"/>
<path class="st9" d="M284.71,288.79c-1.73,2.46-3.45,4.93-5.18,7.39c-2.95-0.51-3.6,2.91-5.91,3.48c-0.1-0.18-0.2-0.36-0.3-0.54
	c7.81-8,15.62-16,23.43-24c0.86-0.88,1.67-1.8,2.51-2.71c1.61-1.52,3.21-3.03,4.82-4.55c0.95,2.91-1.99,3.78-3.11,5.52
	c-1.2,1.87-3.77,2.85-5.01,4.7c-1.04,1.55-4.49,1.88-2.93,4.58c-2.53,1.93-4.88,3.73-7.23,5.53
	C285.43,288.39,285.07,288.59,284.71,288.79z"/>
<path class="st10" d="M210.57,368.52c-1.52,0.9-3.04,1.79-4.57,2.69c-2.81-2.35-3.01-2.34-4.56,0.2c-1.22,0.34-3.78-1.07-2.69,2.99
	c1.13-1.26,1.91-2.12,2.69-2.99c0.64,0.23,1.29,0.47,1.93,0.7c-3.23,2.08-6.45,4.15-9.68,6.23c-0.68-0.42-1.35-0.85-2.03-1.27
	c3.83-3.79,7.67-7.58,11.5-11.37c0.92,0.78,1.99,1.43,2.72,2.35c1.57,2.01,2.46,0.87,3.51-0.35c-0.86-0.76-1.56-1.37-2.26-1.99
	c0.38-0.38,0.77-0.76,1.15-1.15c0.76,0.38,1.52,0.76,2.27,1.14c0.78,0.24,1.56,0.47,2.34,0.71c-0.12,0.33-0.25,0.65-0.37,0.98
	C211.47,367.03,210.37,366.63,210.57,368.52z"/>
<path class="st11" d="M307.5,275.18c-0.7-1.16-1.39-2.32-2.32-3.86c4.85,0.24,5.37-4.06,7.9-6.62c-0.99-0.39-1.8-0.71-2.51-0.99
	c-0.74,1.06-1.36,1.95-1.98,2.84c0.01-1.1,0.01-2.2,0.02-3.3c2.27-2.32,4.53-4.64,6.8-6.97c2.43-0.36,2.4,1.25,2.33,2.9
	C314.33,264.51,310.92,269.84,307.5,275.18z"/>
<path class="st12" d="M297.2,282.5c-0.27-0.58-0.53-1.15-0.64-1.38c2.33-2.08,4.58-4.08,6.9-6.15c0.94,0.17,2.36,0.43,3.78,0.7
	c-0.53,1.13-1.05,2.26-1.58,3.39c-0.18,0.14-0.36,0.28-0.54,0.42c-0.38,0.59-0.75,1.19-1.13,1.78c-1.33,1.91-2.65,3.82-3.98,5.73
	c0.23,0.23,0.47,0.47,0.7,0.7c0.69-0.41,1.39-0.83,2.08-1.24c0.28,2.02,0.06,2.17-2.88,1.95c-0.43,0.79-0.87,1.59-1.3,2.39
	c-0.28-0.04-0.56-0.08-0.85-0.12c0.19-1.59,0.38-3.18,0.58-4.76c0,0,0,0,0,0c0.38-0.37,0.77-0.75,1.15-1.12l0.01-0.01
	c0.37-0.39,0.74-0.77,1.11-1.16c0.01-0.75,0.01-1.5,0.02-2.26c0.67-0.1,1.34-0.21,2.01-0.31c-0.13-0.32-0.27-0.64-0.4-0.96
	c-0.55,0.42-1.09,0.83-1.64,1.25c-0.76,0.38-1.51,0.77-2.27,1.15C297.97,282.51,297.58,282.51,297.2,282.5z"/>
<path class="st13" d="M273.32,299.12c0.1,0.18,0.2,0.36,0.3,0.54c-0.96,2.27,0.49,2.28,2.08,2.28c10.42-0.02,20.84-0.04,31.26,0.03
	c0.93,0.01,1.85,0.71,2.77,1.09c-13.24-0.05-26.48-0.09-39.71-0.14C271.11,301.66,272.22,300.39,273.32,299.12z"/>
<path class="st14" d="M208.3,364.57c-0.38,0.38-0.77,0.76-1.15,1.15c-0.94-0.38-1.87-0.76-2.81-1.14
	c3.99-3.94,7.98-7.89,11.97-11.83c-0.01,0.15-0.01,0.29-0.01,0.44c0.18,0.38,0.36,0.76,0.54,1.15c0.18,0.19,0.37,0.37,0.55,0.56
	c0.01,0.57,0.01,1.13,0.02,1.7c-0.57,0.39-1.15,0.77-1.72,1.16c-0.19,0-0.37,0-0.56,0c-0.41-0.33-0.82-0.66-1.23-0.99
	c0.03,0.52,0.06,1.04,0.09,1.56c-1.52,1.33-3.04,2.65-4.57,3.98c-0.65,0.14-1.3,0.27-1.96,0.41c0.27,0.25,0.54,0.49,0.8,0.74
	C208.28,363.82,208.29,364.2,208.3,364.57z"/>
<path class="st15" d="M323.89,269.98c-3.55-0.52-5.48,1.09-7.81,3.9c-1.66,2-2.56,5.7-6.34,5.94c-0.76,0.05-1.9,1.56-2.03,2.51
	c-0.36,2.59-1.95,2.63-3.87,2.39c0.56-0.75,1.12-1.49,1.67-2.24c0.29-0.51,0.58-1.01,0.87-1.52c3.25-3.13,6.77-6.03,9.65-9.47
	C318.49,268.57,320.88,268.4,323.89,269.98z"/>
<path class="st15" d="M317.75,259.18c0.07-1.65,0.1-3.26-2.33-2.9c3.78-3.38,7.55-6.75,10.13-9.05
	C323.59,250.22,320.67,254.7,317.75,259.18z"/>
<path class="st16" d="M310.28,332.06c-0.35-0.15-0.69-0.3-1.04-0.46c6.74-2.19,10.8-6.7,11.95-13.75c0.3,1.02,1.14,2.29,0.81,3.02
	c-1.8,4-2.81,8.81-8.32,9.68c-0.22,0.04-0.36,0.6-0.54,0.92C312.19,331.67,311.24,331.86,310.28,332.06z"/>
<path class="st8" d="M256.24,290.53c2.66-2.87,5.33-5.73,7.99-8.6c0.23,0.16,0.45,0.33,0.68,0.49c-2.53,3.85-5.06,7.69-7.59,11.54
	c0.23-1.05,0.46-2.09,0.72-3.31C257.5,290.61,256.87,290.57,256.24,290.53z"/>
<path class="st14" d="M220.11,363.38c-0.34,0.18-0.67,0.36-1.01,0.54c-0.38,0-0.75,0.01-1.13,0.01c0.19-0.73,0.39-1.46,0.58-2.2
	c0.89-0.57,1.75-1.18,2.67-1.7c0.84-0.48,2.03-0.66,2.55-1.36c1.17-1.57,2.57-2.24,4.46-2.05c0,0.38,0.01,0.77,0.01,1.15
	c-2.3,1.51-4.59,3.01-6.89,4.52C220.94,362.65,220.53,363.01,220.11,363.38z"/>
<path class="st17" d="M243.65,315.83c0.08,0.59,0.16,1.18,0.24,1.79c1.02-0.53,1.86-0.97,2.7-1.42c-2.17,2.39-4.31,4.81-6.55,7.14
	c-0.28,0.29-1.04,0.11-1.58,0.15l-0.01,0.03C240.19,320.95,241.92,318.39,243.65,315.83z"/>
<path class="st15" d="M313.13,303.56c3.79,0.39,5.65,3.46,7.91,5.88c0.46,0.5,0.1,1.77,0.11,2.68c0,0.92,0.01,1.85,0.01,2.77
	c-0.99-4.83-3.7-8.37-8-10.73c0-0.19-0.01-0.39-0.01-0.58L313.13,303.56z"/>
<path class="st6" d="M191.68,377.08c0.68,0.42,1.35,0.85,2.03,1.27c-2.74,1.47-5.49,2.95-8.23,4.42l0,0.02
	C187.54,380.89,189.61,378.98,191.68,377.08z"/>
<path class="st18" d="M218.55,361.73c-0.19,0.73-0.39,1.46-0.58,2.2c-1.69,0.83-3.38,1.66-5.06,2.5c-0.78-0.24-1.56-0.47-2.34-0.71
	C213.23,364.39,215.89,363.06,218.55,361.73z"/>
<path class="st19" d="M357.69,296.15c-0.6,0.19-1.19,0.38-1.79,0.57c-0.95-2.08-1.89-4.16-2.84-6.24c0.17-0.31,0.35-0.61,0.52-0.92
	C354.95,291.76,356.32,293.96,357.69,296.15z"/>
<path class="st18" d="M204.34,364.58c0.94,0.38,1.87,0.76,2.81,1.14c0.7,0.62,1.4,1.23,2.26,1.99c-1.05,1.23-1.94,2.37-3.51,0.35
	c-0.72-0.93-1.8-1.58-2.72-2.35C203.56,365.33,203.95,364.95,204.34,364.58z"/>
<path class="st9" d="M308.62,263.24c-0.01,1.1-0.01,2.2-0.02,3.3c-1.28,0.21-2.55,0.41-3.83,0.62
	C306.05,265.85,307.34,264.55,308.62,263.24z"/>
<path class="st18" d="M203.39,372.12c-0.64-0.23-1.29-0.47-1.93-0.7l-0.01-0.01c1.55-2.54,1.75-2.55,4.56-0.2
	C205.13,371.52,204.26,371.82,203.39,372.12z"/>
<path class="st4" d="M274.23,305.28c-0.93,0.32-1.87,0.63-2.8,0.95c-0.11-0.43-0.37-1.2-0.31-1.23c0.88-0.39,1.81-0.67,2.72-0.98
	C273.97,304.43,274.1,304.85,274.23,305.28z"/>
<path class="st4" d="M267.57,306.44c0.26-0.73,0.53-1.46,0.79-2.19c0.63,0.33,1.27,0.65,1.9,0.98c-0.04,0.27-0.09,0.53-0.13,0.8
	C269.27,306.17,268.42,306.31,267.57,306.44L267.57,306.44z"/>
<path class="st16" d="M321.16,314.9c0-0.92-0.01-1.85-0.01-2.77c1.83,1.5,1.75,3.03,0.06,4.58
	C321.2,316.1,321.18,315.5,321.16,314.9z"/>
<path class="st8" d="M254.07,292.81c0.71-0.75,1.43-1.5,2.14-2.25c-0.04,0.91-0.08,1.81-0.13,2.85
	C255.36,293.2,254.72,293.01,254.07,292.81z"/>
<path class="st7" d="M306.39,280.95c-0.29,0.51-0.58,1.01-0.87,1.52c-0.11-0.18-0.22-0.35-0.33-0.53c-0.02-0.82-0.04-1.64-0.07-2.46
	c0.18-0.14,0.36-0.28,0.54-0.42C305.9,279.69,306.15,280.32,306.39,280.95z"/>
<path class="st13" d="M311.43,303.59c0.33-0.52,0.66-1.04,0.98-1.56c0.24,0.51,0.48,1.02,0.71,1.53c0,0,0.02,0.02,0.02,0.02
	c-0.22,0.01-0.44,0.02-0.66,0.04C312.14,303.61,311.79,303.6,311.43,303.59z"/>
<path class="st14" d="M210.57,368.52c-0.21-1.9,0.89-1.49,1.97-1.12C211.89,367.78,211.23,368.15,210.57,368.52z"/>
<path class="st4" d="M267.56,306.44c-0.23,0.29-0.46,0.58-0.68,0.87c-0.06-0.06-0.12-0.12-0.18-0.18
	C266.99,306.9,267.28,306.67,267.56,306.44L267.56,306.44z"/>
<path class="st17" d="M238.47,323.48c-0.09,0.1-0.18,0.21-0.26,0.32c0,0.01,0.1,0.09,0.16,0.14c0.03-0.14,0.07-0.29,0.1-0.43
	C238.46,323.51,238.47,323.48,238.47,323.48z"/>
<path class="st6" d="M185.48,382.77c-0.09,0.1-0.17,0.19-0.26,0.29c0.09-0.09,0.17-0.18,0.26-0.26
	C185.47,382.8,185.48,382.77,185.48,382.77z"/>
<path class="st3" d="M312.49,303.62c0.22-0.01,0.44-0.02,0.66-0.04c0,0.19,0.01,0.39,0.01,0.58
	C312.94,303.99,312.71,303.8,312.49,303.62z"/>
<path class="st13" d="M310.05,303.16c0.28,0.12,0.56,0.23,0.84,0.35C310.61,303.39,310.33,303.28,310.05,303.16z"/>
<path class="st0" d="M227.08,295.07c0.17,0.11,0.34,0.21,0.51,0.32C227.42,295.28,227.25,295.17,227.08,295.07z"/>
<path class="st20" d="M250.39,202.64c0.92-0.14,1.84-0.41,2.76-0.41c30.19-0.07,60.38-0.12,90.57-0.17c0.54,0,1.07,0,2.13,0
	c-0.65,0.72-0.93,1.04-1.2,1.35c-1.15-0.24-2.31-0.68-3.46-0.68c-29.22-0.03-58.44-0.01-87.67-0.01
	C252.47,202.72,251.43,202.67,250.39,202.64z"/>
<path class="st21" d="M218.55,361.73c-2.66,1.33-5.32,2.66-7.98,3.98c-0.76-0.38-1.52-0.76-2.27-1.14
	c-0.01-0.38-0.01-0.75-0.02-1.13c0.38-0.38,0.77-0.77,1.15-1.15c1.52-1.33,3.04-2.65,4.57-3.98c0.38-0.19,0.76-0.38,1.13-0.57
	c0.19,0,0.37,0.01,0.56,0c0.81,0.3,1.61,0.6,2.42,0.9c-0.23-0.69-0.46-1.37-0.69-2.06c-0.01-0.57-0.01-1.13-0.02-1.7
	c-0.18-0.19-0.37-0.37-0.55-0.56c-0.18-0.38-0.36-0.76-0.54-1.15c1.53-0.03,2.84,0.21,3.83-1.81c0.69-1.4,2.96-2,4.5-3
	c0.61-0.4,1.66-0.9,1.66-1.35c-0.02-3.75,4.17-4.35,5.31-7.23c0.13-0.34,1.5-0.03,2.09-0.38c0.76-0.44,1.86-1.24,1.85-1.87
	c-0.05-2.58,1.69-3.44,3.54-4.32c0.19,0.18,0.39,0.36,0.58,0.55l0,0c-0.01,0.39-0.02,0.77-0.03,1.16c-1.28,3.96-3.88,6.59-7.76,8.14
	c-0.81,0.32-1.66,1.37-1.86,2.23c-0.87,3.69-3.09,5.83-6.71,6.72c-0.51,0.13-0.89,0.75-1.33,1.14c-1.86,0.6-1.28,1.64-0.29,2.44
	c0.58,0.47,1.5,0.52,2.9,0.95c-1.3-1.7-1.95-2.54-2.6-3.39c2.98,0.37,5.95,0.74,9.27,1.16c-0.24,1.13-0.47,2.26-0.71,3.38
	c-0.09-0.04-0.17-0.08-0.26-0.12c0.08,0.05,0.15,0.1,0.23,0.15c0.21,0.96,0.42,1.92,0.74,3.34c-1.67-0.22-2.96-0.38-4.25-0.55
	c0.21-0.18,0.41-0.37,0.62-0.55c1.02-0.12,2.88,0.61,1.75-1.71c0.01-0.16,0.01-0.31-0.01-0.47c-0.37-0.4-0.75-0.8-1.12-1.2
	c-1.89-0.19-3.29,0.48-4.46,2.05c-0.52,0.7-1.71,0.88-2.55,1.36C220.31,360.56,219.44,361.16,218.55,361.73z"/>
<path class="st22" d="M313.16,363.44c0.19,0.57,0.39,1.15,0.58,1.72c-0.89,0.19-1.77,0.53-2.66,0.53c-5.38,0.04-10.77,0.01-16.15,0
	c-0.93-0.37-1.86-1.07-2.79-1.07c-13.35-0.07-26.71-0.03-40.06-0.1c-0.92,0-1.84-0.72-2.76-1.1
	C270.61,363.43,291.88,363.44,313.16,363.44z"/>
<path class="st23" d="M294.93,365.7c5.38,0.01,10.77,0.04,16.15,0c0.89-0.01,1.77-0.35,2.66-0.53c0.57-0.01,1.13-0.02,1.7-0.02
	c0.95,0.19,1.9,0.39,2.84,0.58c-1.02,0.38-2.04,1.08-3.06,1.08c-21.97,0.07-43.94,0.06-65.9,0.06c0,0,0,0,0,0
	c1.01-0.38,2.03-1.09,3.04-1.09C266.55,365.69,280.74,365.71,294.93,365.7z"/>
<path class="st24" d="M239.63,334.94c0.01-0.39,0.02-0.77,0.03-1.16c21.46,0,42.93-0.01,64.39-0.01c0.76,0.01,1.52,0.02,2.27,0.03
	c-1.02,0.38-2.03,1.09-3.05,1.09C282.06,334.96,260.84,334.94,239.63,334.94z"/>
<path class="st25" d="M313.16,363.44c-21.28,0-42.56-0.01-63.83-0.01c0.73-0.38,1.47-1.08,2.21-1.08c19.81-0.06,39.62-0.06,59.43,0
	C311.7,362.35,312.43,363.06,313.16,363.44z"/>
<path class="st26" d="M240.83,368.43c-6.28,0.01-12.56,0.01-18.84,0.02c0.19-2.48,1.79-1.45,3.1-1.3c0.96,0.11,1.95,0.04,2.92-0.01
	c0.84-0.05,1.68-0.26,2.51-0.27c6.27-0.02,12.53-0.01,18.8-0.01c0,0,0,0,0,0c-0.81,0.38-1.6,0.97-2.45,1.09
	C244.88,368.23,242.85,368.28,240.83,368.43z"/>
<path class="st24" d="M353.06,290.48c0.95,2.08,1.89,4.16,2.84,6.24c0.05,0.51,0.09,1.01,0.14,1.52c-0.44,0.01-1.25,0.11-1.28,0
	c-0.77-2.88-4.96-4.01-3.99-7.75l0.01-0.01C351.54,290.48,352.3,290.48,353.06,290.48z"/>
<path class="st22" d="M318.29,365.72c-0.95-0.19-1.9-0.39-2.84-0.58c-0.11-2.22,1.57-1.8,2.73-1.65c1.37,0.18,3.25-1.08,4.02,1.18
	C320.9,365.02,319.59,365.37,318.29,365.72z"/>
<path class="st7" d="M229.35,357.81c0.01,0.16,0.01,0.31,0.01,0.47c-0.58,0.57-1.17,1.14-1.75,1.71c-0.21,0.18-0.41,0.37-0.62,0.55
	c-1.18,0.92-2.37,1.84-3.55,2.76c-0.08-0.17-0.18-0.31-0.32-0.43c-0.59-0.2-1.18-0.39-1.76-0.59c2.3-1.51,4.59-3.01,6.89-4.52
	C228.61,357.78,228.98,357.8,229.35,357.81z"/>
<path class="st7" d="M223.44,363.3c-0.28,0.25-0.56,0.5-0.85,0.76c0,0-0.17-0.17-0.17-0.17c0.23-0.34,0.46-0.68,0.7-1.01
	C223.26,362.99,223.36,363.13,223.44,363.3z"/>
<path class="st24" d="M350.77,290.49c-0.08-0.05-0.15-0.09-0.23-0.14c0.08,0.04,0.16,0.08,0.24,0.13
	C350.78,290.48,350.77,290.49,350.77,290.49z"/>
<path class="st7" d="M305.52,282.47c-0.56,0.75-1.12,1.49-1.67,2.24c-0.35,0.58-0.7,1.16-1.06,1.74c-0.69,0.41-1.39,0.83-2.08,1.24
	c-0.23-0.23-0.47-0.47-0.7-0.7c1.33-1.91,2.65-3.82,3.98-5.73c0.4,0.23,0.8,0.45,1.2,0.68C305.3,282.12,305.41,282.3,305.52,282.47z
	"/>
<path class="st27" d="M300.63,281.38c-0.01,0.75-0.01,1.5-0.02,2.26c-0.37,0.39-0.74,0.77-1.11,1.16c0,0-0.01,0.01-0.01,0.01
	c-0.38,0.37-0.77,0.75-1.15,1.12c0,0,0,0,0,0c-1.75-1.14-0.38-2.27,0.01-3.41c0.76-0.38,1.51-0.77,2.27-1.15L300.63,281.38z"/>
<path class="st3" d="M284.71,288.79c0.36-0.2,0.73-0.4,1.09-0.6C285.43,288.39,285.07,288.59,284.71,288.79z"/>
<path class="st19" d="M304.05,333.77c-21.46,0-42.93,0.01-64.39,0.01c0,0,0,0,0,0c0-0.18-0.01-0.37-0.01-0.55
	c0.98-0.19,1.97-0.55,2.95-0.55c19.46-0.03,38.91-0.04,58.37,0.02C301.99,332.71,303.02,333.4,304.05,333.77z"/>
<path class="st24" d="M239.64,333.24c0,0.18,0.01,0.37,0.01,0.55c-0.19-0.18-0.39-0.36-0.58-0.55
	C239.26,333.23,239.45,333.23,239.64,333.24z"/>
<path class="st28" d="M223.12,362.87c-0.23,0.34-0.46,0.68-0.7,1.01c-0.77-0.17-1.54-0.34-2.31-0.51c0.41-0.36,0.83-0.73,1.24-1.09
	C221.94,362.48,222.53,362.67,223.12,362.87z"/>
<path class="st18" d="M201.46,371.42c-0.78,0.86-1.56,1.73-2.69,2.99C197.67,370.35,200.23,371.76,201.46,371.42
	C201.45,371.41,201.46,371.42,201.46,371.42z"/>
<path class="st27" d="M300.61,281.36c0.55-0.42,1.09-0.83,1.64-1.25c0.13,0.32,0.27,0.64,0.4,0.96c-0.67,0.1-1.34,0.21-2.01,0.31
	C300.63,281.38,300.61,281.36,300.61,281.36z"/>
<path class="st28" d="M305.19,281.94c-0.4-0.23-0.8-0.45-1.2-0.68c0.38-0.59,0.75-1.19,1.13-1.78
	C305.14,280.3,305.17,281.12,305.19,281.94z"/>
<path class="st3" d="M298.34,285.92c0.38-0.37,0.77-0.75,1.15-1.12C299.1,285.17,298.72,285.55,298.34,285.92z"/>
<path class="st3" d="M299.5,284.79c0.37-0.39,0.74-0.77,1.11-1.16C300.24,284.02,299.87,284.41,299.5,284.79z"/>
<path class="st29" d="M217.42,356.59c0.23,0.69,0.46,1.37,0.69,2.06c-0.81-0.3-1.61-0.6-2.42-0.9
	C216.27,357.36,216.84,356.97,217.42,356.59z"/>
<path class="st29" d="M215.13,357.74c-0.38,0.19-0.76,0.38-1.13,0.57c-0.03-0.52-0.06-1.04-0.09-1.56
	C214.31,357.08,214.72,357.41,215.13,357.74z"/>
<path class="st18" d="M209.43,362.29c-0.38,0.38-0.77,0.77-1.15,1.15c-0.27-0.25-0.54-0.49-0.8-0.74
	C208.13,362.57,208.78,362.43,209.43,362.29z"/>
<path class="st29" d="M216.84,354.33c0.18,0.19,0.37,0.37,0.55,0.56C217.21,354.7,217.03,354.52,216.84,354.33z"/>
<path class="st1" d="M229.35,357.81c-0.37-0.02-0.74-0.03-1.1-0.05c0-0.38-0.01-0.77-0.01-1.15
	C228.6,357.02,228.98,357.41,229.35,357.81z"/>
<path class="st1" d="M221.97,353.18c0.65,0.85,1.3,1.69,2.6,3.39c-1.39-0.43-2.31-0.48-2.9-0.95
	C220.68,354.82,220.1,353.78,221.97,353.18C221.97,353.18,221.97,353.18,221.97,353.18z"/>
<path class="st1" d="M227.6,359.99c0.58-0.57,1.17-1.14,1.75-1.71C230.48,360.61,228.63,359.87,227.6,359.99z"/>
<path class="st1" d="M230.5,357.75c-0.08-0.05-0.15-0.1-0.23-0.15c0.09,0.04,0.17,0.08,0.26,0.12
	C230.53,357.72,230.5,357.75,230.5,357.75z"/>
</svg>